<svg width="1440" height="492" viewBox="0 0 1440 492" fill="none" xmlns="http://www.w3.org/2000/svg">
<path d="M99.2 0C99.2 0 52.5 71.3 21.8 137.2L10.2 225.5L23.2 239.8C23.2 239.8 48.2 304.3 -1 332.2L0 0H99.2Z" fill="#E9F2FB"/>
<path d="M0 314.6C5.4 310.8 10.9 305.1 15.6 296.9C31.2 269.7 17 139.3 23.8 104C30.6 68.7 80.2 0 80.2 0H0V314.6Z" fill="#03AA7F"/>
<path d="M360 0C360 0 374.8 34 547.5 38C576.2 38.7 604.5 45.2 630.3 57.7C658.2 71.2 691.3 93.5 717.1 129.5C771.9 206 921.8 436.1 1255.3 482.3C1328.1 492.4 1389.2 493.2 1440 488.4V0H360Z" fill="#E9F2FB"/>
<path d="M1441 452L1440 0H451.7C451.7 0 586.1 5.6 626.3 32.8C629.6 35.1 632.6 37.8 635.9 40C651 50.1 694.5 84.7 765.5 183.1C855.2 307.4 1044.6 490.8 1441 452Z" fill="#F48141"/>
<path d="M630.3 285.2C631.7 287.4 633.1 289.5 634.6 291.6" stroke="#F48141" stroke-width="3" stroke-miterlimit="10"/>
<path d="M636.9 294.8C638.5 296.8 640.1 298.8 641.8 300.8" stroke="#F48141" stroke-width="3" stroke-miterlimit="10"/>
<path d="M644.4 303.6C645.3 304.5 646.2 305.5 647.1 306.4C648 307.3 648.9 308.2 649.9 309.1" stroke="#F48141" stroke-width="3" stroke-miterlimit="10"/>
<path d="M652.8 311.7C654.8 313.3 656.8 315 658.9 316.5" stroke="#F48141" stroke-width="3" stroke-miterlimit="10"/>
<path d="M662.1 318.6C663.2 319.3 664.3 320 665.4 320.7L668.8 322.6" stroke="#F48141" stroke-width="3" stroke-miterlimit="10"/>
<path d="M672.2 324.2L674 325C674.6 325.3 675.2 325.5 675.8 325.7L679.4 327" stroke="#F48141" stroke-width="3" stroke-miterlimit="10"/>
<path d="M683.1 328.1C683.7 328.3 684.3 328.5 685 328.6L686.9 329C688.2 329.2 689.4 329.5 690.7 329.7" stroke="#F48141" stroke-width="3" stroke-miterlimit="10"/>
<path d="M694.6 330C695.9 330.2 697.2 330.1 698.5 330.1C699.8 330.1 701.1 330.1 702.4 330.1" stroke="#F48141" stroke-width="3" stroke-miterlimit="10"/>
<path d="M706.2 329.7L708.1 329.5C708.7 329.4 709.4 329.3 710 329.1L713.8 328.4" stroke="#F48141" stroke-width="3" stroke-miterlimit="10"/>
<path d="M717.5 327.4L721.2 326.3C722.4 325.9 723.6 325.4 724.8 324.9" stroke="#F48141" stroke-width="3" stroke-miterlimit="10"/>
<path d="M728.4 323.5L735.4 320" stroke="#F48141" stroke-width="3" stroke-miterlimit="10"/>
<path d="M738.7 318.1L742 316.1L742.9 315.6L743.7 315.1L745.2 313.9" stroke="#F48141" stroke-width="3" stroke-miterlimit="10"/>
<path d="M748.4 311.7C750.6 310.3 752.5 308.6 754.5 307" stroke="#F48141" stroke-width="3" stroke-miterlimit="10"/>
<path d="M757.6 304.6C759.6 302.9 761.4 301.2 763.4 299.4" stroke="#F48141" stroke-width="3" stroke-miterlimit="10"/>
<path d="M755 292.1L772.8 290.2C773.3 290.1 773.7 290.5 773.7 291V305" stroke="#F48141" stroke-width="3" stroke-miterlimit="10"/>
</svg>
